# xmcd
#
# Track frame offsets:
#	150
#	6687
#	25487
#	40093
#	57927
#	74169
#	91825
#	108754
#	126584
#	138297
#	156147
#	169398
#	187734
#	206907
#
# Disc length: 2953 seconds
#
# Revision: 2
# Processed by: cddbd v1.5.2PL0 Copyright (c) Steve Scherf et al.
# Submitted via: dBpowerAMP V4.0
#
DISCID=cc0b870e
DTITLE=Talib Kweli - Gutter Rainbows
DYEAR=2011
DGENRE=Hip-Hop
TTITLE0=After The Rain
TTITLE1=Gutter Rainbows
TTITLE2=So Low
TTITLE3=Palookas [Ft. Sean Price]
TTITLE4=Mr. International [Ft. Nigel Hall]
TTITLE5=I'm On One
TTITLE6=Wait For You [Ft. Kendra Ross]
TTITLE7=Ain't Waiting [Ft. Outasight]
TTITLE8=Cold Rain
TTITLE9=Friends and Family
TTITLE10=Tater Tot
TTITLE11=How You Love Me [Ft. Blaq Toven]
TTITLE12=Uh Oh [Ft. Jean Grae]
TTITLE13=Self Savior [Ft. Chace Infinite]
EXTD=
EXTT0=
EXTT1=
EXTT2=
EXTT3=
EXTT4=
EXTT5=
EXTT6=
EXTT7=
EXTT8=
EXTT9=
EXTT10=
EXTT11=
EXTT12=
EXTT13=
PLAYORDER=
